<?xml version="1.0" encoding="UTF-8"?>
<svg version="1.1" xmlns="http://www.w3.org/2000/svg" width="311" height="162">
<path d="M0 0 C102.63 0 205.26 0 311 0 C311 53.46 311 106.92 311 162 C208.37 162 105.74 162 0 162 C0 108.54 0 55.08 0 0 Z " fill="#4E473E" transform="translate(0,0)"/>
<path d="M0 0 C102.63 0 205.26 0 311 0 C311 10.89 311 21.78 311 33 C279.32333958 33.15143631 247.64666027 33.29681219 215.96993193 33.4332476 C212.19536783 33.44951066 208.42080396 33.46582752 204.64624023 33.48217773 C203.89506993 33.48543066 203.14389962 33.48868358 202.36996657 33.49203508 C190.34703347 33.54422718 178.32412458 33.60073617 166.30121934 33.6589582 C153.88326617 33.71899274 141.46529756 33.77411619 129.04730374 33.82505554 C122.10661945 33.85365761 115.16595814 33.88425478 108.22530937 33.92053413 C72.13107449 34.1078466 36.08505571 33.81501866 0 33 C0 22.11 0 11.22 0 0 Z " fill="#433C39" transform="translate(0,0)"/>
<path d="M0 0 C102.63 0 205.26 0 311 0 C311 7.59 311 15.18 311 23 C208.37 23 105.74 23 0 23 C0 15.41 0 7.82 0 0 Z " fill="#443A31" transform="translate(0,33)"/>
<path d="M0 0 C102.63 0 205.26 0 311 0 C311 3.96 311 7.92 311 12 C208.37 12 105.74 12 0 12 C0 8.04 0 4.08 0 0 Z " fill="#423E32" transform="translate(0,150)"/>
<path d="M0 0 C102.63 0 205.26 0 311 0 C311 3.63 311 7.26 311 11 C288.41682774 11.20876555 265.83351073 11.39444084 243.25 11.5625 C242.3957278 11.56888284 241.5414556 11.57526568 240.66129637 11.58184195 C183.20752541 12.00949297 125.76620417 11.98859164 68.3125 11.5625 C67.44635637 11.55610205 66.58021275 11.5497041 65.68782234 11.54311228 C43.79171222 11.38100278 21.89579206 11.20055719 0 11 C0 7.37 0 3.74 0 0 Z " fill="#3C3835" transform="translate(0,56)"/>
<path d="M0 0 C102.63 0 205.26 0 311 0 C311 3.63 311 7.26 311 11 C208.37 11 105.74 11 0 11 C0 7.37 0 3.74 0 0 Z " fill="#3E372F" transform="translate(0,102)"/>
<path d="M0 0 C102.63 0 205.26 0 311 0 C311 2.31 311 4.62 311 7 C279.17892492 7.15166301 247.35782794 7.29677796 215.53668433 7.4332476 C211.74581018 7.44951087 207.95493627 7.4658277 204.1640625 7.48217773 C203.40963927 7.48543066 202.65521603 7.48868358 201.87793149 7.49203508 C189.79935751 7.54424208 177.72080751 7.60074861 165.64226113 7.6589582 C153.16894202 7.71897028 140.6956076 7.77409811 128.2222482 7.82505554 C121.2497379 7.85367084 114.27725035 7.88427793 107.30477524 7.92053413 C71.52079268 8.1052778 35.7750909 7.8421547 0 7 C0 4.69 0 2.38 0 0 Z " fill="#3E3834" transform="translate(0,0)"/>
<path d="M0 0 C102.63 0 205.26 0 311 0 C311 2.31 311 4.62 311 7 C208.37 7 105.74 7 0 7 C0 4.69 0 2.38 0 0 Z " fill="#4D463C" transform="translate(0,95)"/>
<path d="M0 0 C102.63 0 205.26 0 311 0 C311 2.31 311 4.62 311 7 C208.37 7 105.74 7 0 7 C0 4.69 0 2.38 0 0 Z " fill="#4D453B" transform="translate(0,88)"/>
<path d="M0 0 C102.63 0 205.26 0 311 0 C311 2.31 311 4.62 311 7 C208.37 7 105.74 7 0 7 C0 4.69 0 2.38 0 0 Z " fill="#4D453B" transform="translate(0,81)"/>
<path d="M0 0 C102.63 0 205.26 0 311 0 C311 2.31 311 4.62 311 7 C208.37 7 105.74 7 0 7 C0 4.69 0 2.38 0 0 Z " fill="#4F4945" transform="translate(0,33)"/>
<path d="M0 0 C102.63 0 205.26 0 311 0 C311 1.65 311 3.3 311 5 C208.37 5 105.74 5 0 5 C0 3.35 0 1.7 0 0 Z " fill="#37332E" transform="translate(0,76)"/>
<path d="M0 0 C102.63 0 205.26 0 311 0 C311 1.65 311 3.3 311 5 C208.37 5 105.74 5 0 5 C0 3.35 0 1.7 0 0 Z " fill="#594F4A" transform="translate(0,7)"/>
<path d="M0 0 C102.63 0 205.26 0 311 0 C311 1.32 311 2.64 311 4 C279.32334105 4.15169771 247.64666003 4.29681219 215.96993193 4.4332476 C212.19536783 4.44951066 208.42080396 4.46582752 204.64624023 4.48217773 C203.89506993 4.48543066 203.14389962 4.48868358 202.36996657 4.49203508 C190.34703347 4.54422718 178.32412458 4.60073617 166.30121934 4.6589582 C153.88326617 4.71899274 141.46529756 4.77411619 129.04730374 4.82505554 C122.10661945 4.85365761 115.16595814 4.88425478 108.22530937 4.92053413 C72.13228964 5.10784029 36.08364774 4.83537032 0 4 C0 2.68 0 1.36 0 0 Z " fill="#514743" transform="translate(0,29)"/>
<path d="M0 0 C102.63 0 205.26 0 311 0 C311 0.99 311 1.98 311 3 C279.71750249 4.22770698 248.4376339 4.05952968 217.13822598 3.90999443 C209.59072414 3.87416996 202.04320012 3.84507045 194.49566887 3.81623887 C181.04486237 3.76468731 167.59408221 3.70810746 154.14331055 3.64819336 C141.10653702 3.5901345 128.06975665 3.53455087 115.03295898 3.48217773 C114.22424297 3.47892802 113.41552695 3.4756783 112.58230438 3.4723301 C108.52368249 3.45603594 104.46506041 3.43978919 100.40643823 3.42356598 C66.9375929 3.28972269 33.46878728 3.14764694 0 3 C0 2.01 0 1.02 0 0 Z " fill="#352F29" transform="translate(0,102)"/>
<path d="M0 0 C102.63 0 205.26 0 311 0 C311 0.99 311 1.98 311 3 C288.41683574 3.20946344 265.83350858 3.39444086 243.25 3.5625 C242.3957278 3.56888284 241.5414556 3.57526568 240.66129637 3.58184195 C183.20752541 4.00949297 125.76620417 3.98859164 68.3125 3.5625 C67.44635637 3.55610205 66.58021275 3.5497041 65.68782234 3.54311228 C43.79171425 3.38100279 21.89578448 3.20122148 0 3 C0 2.01 0 1.02 0 0 Z " fill="#33312F" transform="translate(0,64)"/>
<path d="M0 0 C102.63 0 205.26 0 311 0 C311 0.99 311 1.98 311 3 C279.17892492 3.15166301 247.35782794 3.29677796 215.53668433 3.4332476 C211.74581018 3.44951087 207.95493627 3.4658277 204.1640625 3.48217773 C203.40963927 3.48543066 202.65521603 3.48868358 201.87793149 3.49203508 C189.79935751 3.54424208 177.72080751 3.60074861 165.64226113 3.6589582 C153.16894202 3.71897028 140.6956076 3.77409811 128.2222482 3.82505554 C121.2497379 3.85367084 114.27725035 3.88427793 107.30477524 3.92053413 C71.52079268 4.1052778 35.7750909 3.8421547 0 3 C0 2.01 0 1.02 0 0 Z " fill="#332D2A" transform="translate(0,26)"/>
<path d="M0 0 C102.63 0 205.26 0 311 0 C311 0.99 311 1.98 311 3 C208.37 3 105.74 3 0 3 C0 2.01 0 1.02 0 0 Z " fill="#655E4D" transform="translate(0,147)"/>
<path d="M0 0 C102.63 0 205.26 0 311 0 C311 0.99 311 1.98 311 3 C208.37 3 105.74 3 0 3 C0 2.01 0 1.02 0 0 Z " fill="#353229" transform="translate(0,144)"/>
<path d="M0 0 C102.63 0 205.26 0 311 0 C311 0.99 311 1.98 311 3 C208.37 3 105.74 3 0 3 C0 2.01 0 1.02 0 0 Z " fill="#685F54" transform="translate(0,99)"/>
<path d="M0 0 C102.63 0 205.26 0 311 0 C311 0.99 311 1.98 311 3 C208.37 3 105.74 3 0 3 C0 2.01 0 1.02 0 0 Z " fill="#332E27" transform="translate(0,88)"/>
<path d="M0 0 C102.63 0 205.26 0 311 0 C311 0.99 311 1.98 311 3 C208.37 3 105.74 3 0 3 C0 2.01 0 1.02 0 0 Z " fill="#6C655D" transform="translate(0,81)"/>
<path d="M0 0 C102.63 0 205.26 0 311 0 C311 0.99 311 1.98 311 3 C208.37 3 105.74 3 0 3 C0 2.01 0 1.02 0 0 Z " fill="#6C6361" transform="translate(0,33)"/>
<path d="M0 0 C102.63 0 205.26 0 311 0 C311 0.99 311 1.98 311 3 C208.37 3 105.74 3 0 3 C0 2.01 0 1.02 0 0 Z " fill="#67625C" transform="translate(0,61)"/>
<path d="M0 0 C102.63 0 205.26 0 311 0 C311 0.99 311 1.98 311 3 C208.37 3 105.74 3 0 3 C0 2.01 0 1.02 0 0 Z " fill="#645F5A" transform="translate(0,53)"/>
<path d="M0 0 C102.63 0 205.26 0 311 0 C311 0.99 311 1.98 311 3 C208.37 3 105.74 3 0 3 C0 2.01 0 1.02 0 0 Z " fill="#6B6662" transform="translate(0,67)"/>
<path d="M0 0 C102.63 0 205.26 0 311 0 C311 0.99 311 1.98 311 3 C208.37 3 105.74 3 0 3 C0 2.01 0 1.02 0 0 Z " fill="#6F6655" transform="translate(0,141)"/>
<path d="M0 0 C102.63 0 205.26 0 311 0 C311 0.99 311 1.98 311 3 C208.37 3 105.74 3 0 3 C0 2.01 0 1.02 0 0 Z " fill="#685C4E" transform="translate(0,105)"/>
<path d="M0 0 C102.63 0 205.26 0 311 0 C311 0.99 311 1.98 311 3 C208.37 3 105.74 3 0 3 C0 2.01 0 1.02 0 0 Z " fill="#5E6057" transform="translate(0,159)"/>
<path d="M0 0 C102.63 0 205.26 0 311 0 C311 0.99 311 1.98 311 3 C208.37 3 105.74 3 0 3 C0 2.01 0 1.02 0 0 Z " fill="#615652" transform="translate(0,17)"/>
<path d="M0 0 C102.63 0 205.26 0 311 0 C311 1.32 311 2.64 311 4 C244.01 4 177.02 4 108 4 C108 3.67 108 3.34 108 3 C93.96853044 2.2438057 79.96839252 1.81379504 65.91796875 1.68359375 C63.99741762 1.66293901 62.07687015 1.64194094 60.15632629 1.62062073 C55.18029819 1.56627691 50.20423533 1.51649346 45.22814941 1.46777344 C40.11886625 1.41690418 35.00963152 1.36156506 29.90039062 1.30664062 C19.93363543 1.20013728 9.9668376 1.09846819 0 1 C0 0.67 0 0.34 0 0 Z " fill="#3B3B37" transform="translate(0,40)"/>
<path d="M0 0 C55.44 0 110.88 0 168 0 C168 0.66 168 1.32 168 2 C193.41 2 218.82 2 245 2 C245 2.33 245 2.66 245 3 C164.15 3 83.3 3 0 3 C0 2.01 0 1.02 0 0 Z " fill="#5D5C5D" transform="translate(0,49)"/>
<path d="M0 0 C55.44 0 110.88 0 168 0 C168 0.99 168 1.98 168 3 C112.56 3 57.12 3 0 3 C0 2.01 0 1.02 0 0 Z " fill="#515763" transform="translate(0,45)"/>
</svg>
