<?xml version="1.0" encoding="UTF-8"?>
<svg version="1.1" xmlns="http://www.w3.org/2000/svg" width="307" height="164">
<path d="M0 0 C101.31 0 202.62 0 307 0 C307 54.12 307 108.24 307 164 C205.69 164 104.38 164 0 164 C0 109.88 0 55.76 0 0 Z " fill="#3A4B5D" transform="translate(0,0)"/>
<path d="M0 0 C101.31 0 202.62 0 307 0 C307 15.84 307 31.68 307 48 C205.69 48 104.38 48 0 48 C0 32.16 0 16.32 0 0 Z " fill="#42576E" transform="translate(0,0)"/>
<path d="M0 0 C101.31 0 202.62 0 307 0 C307 14.19 307 28.38 307 43 C205.69 43 104.38 43 0 43 C0 28.81 0 14.62 0 0 Z " fill="#697079" transform="translate(0,121)"/>
<path d="M0 0 C101.31 0 202.62 0 307 0 C307 5.94 307 11.88 307 18 C205.69 18 104.38 18 0 18 C0 12.06 0 6.12 0 0 Z " fill="#313E4C" transform="translate(0,103)"/>
<path d="M0 0 C101.31 0 202.62 0 307 0 C307 5.61 307 11.22 307 17 C235.8587282 17.5810978 164.71776876 18.10589779 93.57378906 18.12283063 C88.59310473 18.12410419 83.6124265 18.12783115 78.63174438 18.13256836 C71.90335518 18.13873642 65.17499181 18.13863576 58.44659996 18.13431931 C56.01331278 18.13334191 53.58002435 18.13386396 51.14673805 18.13615799 C34.07552106 18.14944619 17.05609895 17.70401783 0 17 C0 11.39 0 5.78 0 0 Z " fill="#4C5663" transform="translate(0,0)"/>
<path d="M0 0 C101.31 0 202.62 0 307 0 C307 5.28 307 10.56 307 16 C205.69 16 104.38 16 0 16 C0 10.72 0 5.44 0 0 Z " fill="#7A7B7C" transform="translate(0,148)"/>
<path d="M0 0 C101.31 0 202.62 0 307 0 C307 2.97 307 5.94 307 9 C108.52547622 10.39898755 108.52547622 10.39898755 0 9 C0 6.03 0 3.06 0 0 Z " fill="#2F4052" transform="translate(0,48)"/>
<path d="M0 0 C101.31 0 202.62 0 307 0 C307 2.97 307 5.94 307 9 C205.69 9 104.38 9 0 9 C0 6.03 0 3.06 0 0 Z " fill="#4A5B6F" transform="translate(0,17)"/>
<path d="M0 0 C101.31 0 202.62 0 307 0 C307 2.31 307 4.62 307 7 C205.69 7 104.38 7 0 7 C0 4.69 0 2.38 0 0 Z " fill="#4F6173" transform="translate(0,103)"/>
<path d="M0 0 C101.31 0 202.62 0 307 0 C307 2.31 307 4.62 307 7 C205.69 7 104.38 7 0 7 C0 4.69 0 2.38 0 0 Z " fill="#2B3E57" transform="translate(0,0)"/>
<path d="M0 0 C101.31 0 202.62 0 307 0 C307 2.31 307 4.62 307 7 C205.69 7 104.38 7 0 7 C0 4.69 0 2.38 0 0 Z " fill="#475B71" transform="translate(0,57)"/>
<path d="M0 0 C21.91665993 -0.03184455 43.83332042 -0.05137628 65.75 -0.0625 C66.58047804 -0.0629343 67.41095609 -0.06336861 68.26660013 -0.06381607 C124.991951 -0.09265684 181.71352007 0.10873397 238.4375 0.5 C239.73926084 0.50896057 239.73926084 0.50896057 241.06731987 0.51810217 C263.04494947 0.66956285 285.02250871 0.82962161 307 1 C307 2.98 307 4.96 307 7 C205.69 7 104.38 7 0 7 C0 4.69 0 2.38 0 0 Z " fill="#495B71" transform="translate(0,41)"/>
<path d="M0 0 C101.31 0 202.62 0 307 0 C307 1.98 307 3.96 307 6 C294.12923859 6.13372052 281.25844831 6.26422079 268.38761806 6.39115143 C262.40414826 6.45024938 256.4206912 6.51025686 250.43725586 6.57275391 C192.6237555 7.17473902 134.82599532 6.9807922 77.01269335 6.55461836 C68.58366984 6.4925591 60.15463012 6.43284169 51.72558892 6.37324238 C34.48370785 6.25128154 17.24184742 6.12662677 0 6 C0 4.02 0 2.04 0 0 Z " fill="#606B77" transform="translate(0,121)"/>
<path d="M0 0 C101.31 0 202.62 0 307 0 C307 1.65 307 3.3 307 5 C205.69 5 104.38 5 0 5 C0 3.35 0 1.7 0 0 Z " fill="#38485A" transform="translate(0,64)"/>
<path d="M0 0 C101.31 0 202.62 0 307 0 C307 1.32 307 2.64 307 4 C205.69 4 104.38 4 0 4 C0 2.68 0 1.36 0 0 Z " fill="#495B71" transform="translate(0,99)"/>
<path d="M0 0 C101.31 0 202.62 0 307 0 C307 1.32 307 2.64 307 4 C205.69 4 104.38 4 0 4 C0 2.68 0 1.36 0 0 Z " fill="#455A70" transform="translate(0,84)"/>
<path d="M0 0 C101.31 0 202.62 0 307 0 C307 1.32 307 2.64 307 4 C284.14583999 4.03168934 261.29167884 4.05132803 238.4375 4.0625 C237.14391162 4.06315145 237.14391162 4.06315145 235.82419014 4.06381607 C179.13098593 4.09157775 122.44175152 3.90607104 65.75 3.5 C64.49622378 3.49103943 64.49622378 3.49103943 63.21711874 3.48189783 C42.14466768 3.33110432 21.07229574 3.17118316 0 3 C0 2.01 0 1.02 0 0 Z " fill="#3D4D60" transform="translate(0,38)"/>
<path d="M0 0 C101.31 0 202.62 0 307 0 C307 0.99 307 1.98 307 3 C108.52547622 4.39898755 108.52547622 4.39898755 0 3 C0 2.01 0 1.02 0 0 Z " fill="#2D3C4C" transform="translate(0,54)"/>
<path d="M0 0 C101.31 0 202.62 0 307 0 C307 0.99 307 1.98 307 3 C241.95327202 3.67220032 176.90964019 4.10911831 111.85927641 4.12283063 C106.22686052 4.12410435 100.59445008 4.12785191 94.96203613 4.13256836 C29.21814342 4.18384256 29.21814342 4.18384256 0 3 C0 2.01 0 1.02 0 0 Z " fill="#3A434D" transform="translate(0,26)"/>
<path d="M0 0 C101.31 0 202.62 0 307 0 C307 0.99 307 1.98 307 3 C281.89596918 3.20675156 256.79180597 3.39246682 231.6875 3.5625 C230.27902046 3.57207426 230.27902046 3.57207426 228.84208679 3.58184195 C172.2237987 3.96540102 115.61778916 4.0418608 59 3.5625 C58.24092456 3.55610205 57.48184913 3.5497041 56.6997714 3.54311228 C37.79963117 3.38340053 18.8997134 3.20449535 0 3 C0 2.01 0 1.02 0 0 Z " fill="#323F4C" transform="translate(0,110)"/>
<path d="M0 0 C101.31 0 202.62 0 307 0 C307 0.99 307 1.98 307 3 C205.69 3 104.38 3 0 3 C0 2.01 0 1.02 0 0 Z " fill="#79899D" transform="translate(0,103)"/>
<path d="M0 0 C101.31 0 202.62 0 307 0 C307 0.99 307 1.98 307 3 C205.69 3 104.38 3 0 3 C0 2.01 0 1.02 0 0 Z " fill="#313D4B" transform="translate(0,96)"/>
<path d="M0 0 C101.31 0 202.62 0 307 0 C307 0.99 307 1.98 307 3 C205.69 3 104.38 3 0 3 C0 2.01 0 1.02 0 0 Z " fill="#5E7896" transform="translate(0,93)"/>
<path d="M0 0 C101.31 0 202.62 0 307 0 C307 0.99 307 1.98 307 3 C205.69 3 104.38 3 0 3 C0 2.01 0 1.02 0 0 Z " fill="#5D7896" transform="translate(0,81)"/>
<path d="M0 0 C101.31 0 202.62 0 307 0 C307 0.99 307 1.98 307 3 C205.69 3 104.38 3 0 3 C0 2.01 0 1.02 0 0 Z " fill="#2D3B4B" transform="translate(0,78)"/>
<path d="M0 0 C101.31 0 202.62 0 307 0 C307 0.99 307 1.98 307 3 C205.69 3 104.38 3 0 3 C0 2.01 0 1.02 0 0 Z " fill="#526A8C" transform="translate(0,7)"/>
<path d="M0 0 C101.31 0 202.62 0 307 0 C307 0.99 307 1.98 307 3 C205.69 3 104.38 3 0 3 C0 2.01 0 1.02 0 0 Z " fill="#82909F" transform="translate(0,127)"/>
<path d="M0 0 C101.31 0 202.62 0 307 0 C307 0.99 307 1.98 307 3 C205.69 3 104.38 3 0 3 C0 2.01 0 1.02 0 0 Z " fill="#69819A" transform="translate(0,113)"/>
<path d="M0 0 C101.31 0 202.62 0 307 0 C307 0.99 307 1.98 307 3 C205.69 3 104.38 3 0 3 C0 2.01 0 1.02 0 0 Z " fill="#5D7794" transform="translate(0,29)"/>
<path d="M0 0 C101.31 0 202.62 0 307 0 C307 0.99 307 1.98 307 3 C205.69 3 104.38 3 0 3 C0 2.01 0 1.02 0 0 Z " fill="#6B7F97" transform="translate(0,23)"/>
<path d="M0 0 C101.31 0 202.62 0 307 0 C307 0.99 307 1.98 307 3 C205.69 3 104.38 3 0 3 C0 2.01 0 1.02 0 0 Z " fill="#667D97" transform="translate(0,57)"/>
<path d="M0 0 C30.30061595 -0.02305311 60.60123066 -0.04063124 90.90185339 -0.05106533 C94.51847194 -0.05231532 98.13509047 -0.05360971 101.75170898 -0.05493164 C102.47139928 -0.05519395 103.19108958 -0.05545626 103.93258867 -0.05572652 C115.42766516 -0.0600209 126.92273639 -0.06787214 138.41780981 -0.0771528 C150.30470449 -0.08666626 162.19159652 -0.09209195 174.07849485 -0.09408849 C180.71642393 -0.09531102 187.35434364 -0.0982576 193.99226952 -0.10573006 C231.67317311 -0.14651988 269.3273612 0.26555006 307 1 C307 1.66 307 2.32 307 3 C205.69 3 104.38 3 0 3 C0 2.01 0 1.02 0 0 Z " fill="#56718F" transform="translate(0,75)"/>
<path d="M0 0 C101.31 0 202.62 0 307 0 C307 0.99 307 1.98 307 3 C205.69 3 104.38 3 0 3 C0 2.01 0 1.02 0 0 Z " fill="#5E758F" transform="translate(0,69)"/>
<path d="M0 0 C21.91665993 -0.03184455 43.83332042 -0.05137628 65.75 -0.0625 C66.58047804 -0.0629343 67.41095609 -0.06336861 68.26660013 -0.06381607 C124.991951 -0.09265684 181.71352007 0.10873397 238.4375 0.5 C239.73926084 0.50896057 239.73926084 0.50896057 241.06731987 0.51810217 C263.04494947 0.66956285 285.02250871 0.82962161 307 1 C307 1.66 307 2.32 307 3 C205.69 3 104.38 3 0 3 C0 2.01 0 1.02 0 0 Z " fill="#5D7088" transform="translate(0,41)"/>
<path d="M0 0 C55.44 0 110.88 0 168 0 C168 0.66 168 1.32 168 2 C213.87 2 259.74 2 307 2 C307 2.33 307 2.66 307 3 C205.69 3 104.38 3 0 3 C0 2.01 0 1.02 0 0 Z " fill="#6D88A7" transform="translate(0,51)"/>
<path d="M0 0 C101.31 0 202.62 0 307 0 C307 0.66 307 1.32 307 2 C242.88646604 2.77808522 178.77809509 3.11106395 114.66023165 3.12283063 C108.14342993 3.12411154 101.62663282 3.12785577 95.10983276 3.13256836 C86.19453652 3.13876816 77.27925541 3.13862656 68.36395836 3.13431931 C65.06842317 3.13286735 61.77289987 3.13350811 58.47736549 3.13615799 C38.95936118 3.1500326 19.50247413 2.87036621 0 2 C0 1.34 0 0.68 0 0 Z " fill="#586575" transform="translate(0,17)"/>
<path d="M0 0 C36.63 0 73.26 0 111 0 C111 0.66 111 1.32 111 2 C97.32592952 2.87018102 83.71885988 3.13535967 70.01953125 3.09765625 C67.98402441 3.095785 65.9485171 3.09436445 63.91300964 3.09336853 C58.62454933 3.08959894 53.33611766 3.07981801 48.04766846 3.06866455 C42.62357978 3.05832905 37.19948636 3.05384524 31.77539062 3.04882812 C21.18358135 3.03818919 10.59179308 3.02118195 0 3 C0 2.01 0 1.02 0 0 Z " fill="#8F979F" transform="translate(0,117)"/>
</svg>
